<svg width="25" height="25" viewBox="0 0 25 25" fill="none" xmlns="http://www.w3.org/2000/svg">
<path d="M23.8125 6.10938C23.75 5.89062 23.6094 5.76563 23.3906 5.73438C23.2031 5.67188 23.0312 5.71875 22.875 5.875L19.3594 9.34375L16.1719 8.82812L15.6562 5.64062L19.125 2.125C19.2812 1.96875 19.3281 1.79688 19.2656 1.60938C19.2344 1.39062 19.1094 1.25 18.8906 1.1875C17.7656 0.90625 16.625 0.921875 15.4688 1.23438C14.3125 1.54688 13.3125 2.125 12.4688 2.96875C11.5625 3.875 10.9688 4.95312 10.6875 6.20312C10.4062 7.45313 10.4688 8.67188 10.875 9.85938L0.890625 19.8906C0.296875 20.4844 0 21.1875 0 22C0 22.8438 0.28125 23.5469 0.84375 24.1094C1.4375 24.7031 2.14062 25 2.95312 25C3.79688 25 4.51562 24.7031 5.10938 24.1094L15.0938 14.125C16.3125 14.5312 17.5312 14.5938 18.75 14.3125C20 14.0312 21.0938 13.4375 22.0312 12.5312C22.875 11.6562 23.4531 10.6562 23.7656 9.53125C24.0781 8.375 24.0938 7.23438 23.8125 6.10938ZM3 23.125C2.6875 23.125 2.42188 23.0156 2.20312 22.7969C1.98438 22.5781 1.875 22.3125 1.875 22C1.875 21.6875 1.98438 21.4219 2.20312 21.2031C2.42188 20.9844 2.6875 20.875 3 20.875C3.3125 20.875 3.57812 20.9844 3.79688 21.2031C4.01562 21.4219 4.125 21.6875 4.125 22C4.125 22.3125 4.01562 22.5781 3.79688 22.7969C3.57812 23.0156 3.3125 23.125 3 23.125Z" fill="black"/>
</svg>
